<svg id="Layer_1" data-name="Layer 1" xmlns="http://www.w3.org/2000/svg" viewBox="0 0 45.9 46.33"><defs><style>.cls-1{fill:#b4b4b4;}.cls-2{fill:#fff;}</style></defs><title>AvatarArtboard 2</title><path class="cls-1" d="M45.57,23A22.62,22.62,0,1,0,8.91,40.71v0l.06,0a22.54,22.54,0,0,0,27.94,0l.06,0v0A22.58,22.58,0,0,0,45.57,23Z"/><path class="cls-2" d="M23,30.13A11.35,11.35,0,1,0,11.6,18.78,11.37,11.37,0,0,0,23,30.13Zm0-19.71a8.35,8.35,0,1,1-8.35,8.35A8.36,8.36,0,0,1,23,10.42Z"/><path class="cls-2" d="M45.57,23A22.62,22.62,0,1,0,8.91,40.71v0l.06,0a22.54,22.54,0,0,0,27.94,0l.06,0v0A22.58,22.58,0,0,0,45.57,23ZM3.33,23A19.62,19.62,0,1,1,35.95,37.65a19.71,19.71,0,0,0-26,0A19.55,19.55,0,0,1,3.33,23Zm9.06,16.51a16.75,16.75,0,0,1,21.11,0,19.48,19.48,0,0,1-21.11,0Z"/></svg>